<svg xmlns="http://www.w3.org/2000/svg" width="1280" height="852" viewBox="0 0 1280 852" role="img" aria-label="300 tools in 24 categories: Developer 28, Algorithms 20, Art 20, Math 20, Physics 20, Science 20, Utility 16, Text 15, Design 10, Everyday 10, Health 10, Home 10, Learning 10, Money 10, Music 10, Productivity 10, Security 10, Travel 10, Work 10, Calculator 8, Image 7, Network 7, Convert 6, Scan and Code 3">
<style>
  .t { font-family: 'Bricolage Grotesque', ui-sans-serif, system-ui, -apple-system, 'Segoe UI', Roboto, Helvetica, Arial, sans-serif; fill: #1b1a17; }
  .m { font-family: 'JetBrains Mono', ui-monospace, SFMono-Regular, Menlo, Consolas, monospace; fill: #676357; }
  @keyframes grow { from { transform: scaleX(0); } to { transform: scaleX(1); } }
  @keyframes fade { from { opacity: 0; } to { opacity: 1; } }
  @keyframes shine { 0%, 70% { transform: translateX(-120px); } 100% { transform: translateX(1020px); } }
  .bar { transform-box: fill-box; transform-origin: left; animation: grow 1.1s cubic-bezier(0.22, 1, 0.36, 1) both; }
  .n { animation: fade 0.5s ease-out both; }
  .shine { animation: shine 4s ease-in-out infinite; }
  @media (prefers-reduced-motion: reduce) { * { animation: none !important; } }
</style>
<defs><linearGradient id="sh" x1="0" x2="1"><stop offset="0" stop-color="#fff" stop-opacity="0"/><stop offset="0.5" stop-color="#fff" stop-opacity="0.35"/><stop offset="1" stop-color="#fff" stop-opacity="0"/></linearGradient></defs>
<rect width="1280" height="852" rx="20" fill="#f3f0e8"/>
<rect x="0.5" y="0.5" width="1279" height="851" rx="19.5" fill="none" stroke="#d8d2c3"/>
<text x="40" y="52" class="t" font-size="26" font-weight="750">300 tools in 24 categories</text>
<text x="40" y="76" class="m" font-size="13">BARS IN A CATEGORY'S TILE COLOR · ★ = INTERACTIVE SIMULATIONS</text>
<g>
  <text x="156" y="114" class="t" font-size="15" font-weight="600" text-anchor="end">Developer</text>
  <rect x="170" y="100" width="900" height="18" rx="5" fill="#ece8de"/>
  <rect class="bar" style="animation-delay:0ms" x="170" y="100" width="900" height="18" rx="5" fill="hsl(155 48% 48%)"/>
  <text class="n m" style="animation-delay:600ms" x="1080" y="114" font-size="13" font-weight="600">28</text>
</g>
<g>
  <text x="156" y="144" class="t" font-size="15" font-weight="600" text-anchor="end">★ Algorithms</text>
  <rect x="170" y="130" width="900" height="18" rx="5" fill="#ece8de"/>
  <rect class="bar" style="animation-delay:70ms" x="170" y="130" width="642.8571428571429" height="18" rx="5" fill="hsl(175 48% 48%)"/>
  <text class="n m" style="animation-delay:670ms" x="822.8571428571429" y="144" font-size="13" font-weight="600">20</text>
</g>
<g>
  <text x="156" y="174" class="t" font-size="15" font-weight="600" text-anchor="end">★ Art</text>
  <rect x="170" y="160" width="900" height="18" rx="5" fill="#ece8de"/>
  <rect class="bar" style="animation-delay:140ms" x="170" y="160" width="642.8571428571429" height="18" rx="5" fill="hsl(340 48% 48%)"/>
  <text class="n m" style="animation-delay:740ms" x="822.8571428571429" y="174" font-size="13" font-weight="600">20</text>
</g>
<g>
  <text x="156" y="204" class="t" font-size="15" font-weight="600" text-anchor="end">★ Math</text>
  <rect x="170" y="190" width="900" height="18" rx="5" fill="#ece8de"/>
  <rect class="bar" style="animation-delay:210ms" x="170" y="190" width="642.8571428571429" height="18" rx="5" fill="hsl(20 48% 48%)"/>
  <text class="n m" style="animation-delay:810ms" x="822.8571428571429" y="204" font-size="13" font-weight="600">20</text>
</g>
<g>
  <text x="156" y="234" class="t" font-size="15" font-weight="600" text-anchor="end">★ Physics</text>
  <rect x="170" y="220" width="900" height="18" rx="5" fill="#ece8de"/>
  <rect class="bar" style="animation-delay:280ms" x="170" y="220" width="642.8571428571429" height="18" rx="5" fill="hsl(230 48% 48%)"/>
  <text class="n m" style="animation-delay:880ms" x="822.8571428571429" y="234" font-size="13" font-weight="600">20</text>
</g>
<g>
  <text x="156" y="264" class="t" font-size="15" font-weight="600" text-anchor="end">★ Science</text>
  <rect x="170" y="250" width="900" height="18" rx="5" fill="#ece8de"/>
  <rect class="bar" style="animation-delay:350ms" x="170" y="250" width="642.8571428571429" height="18" rx="5" fill="hsl(105 48% 48%)"/>
  <text class="n m" style="animation-delay:950ms" x="822.8571428571429" y="264" font-size="13" font-weight="600">20</text>
</g>
<g>
  <text x="156" y="294" class="t" font-size="15" font-weight="600" text-anchor="end">Utility</text>
  <rect x="170" y="280" width="900" height="18" rx="5" fill="#ece8de"/>
  <rect class="bar" style="animation-delay:420ms" x="170" y="280" width="514.2857142857142" height="18" rx="5" fill="hsl(60 48% 48%)"/>
  <text class="n m" style="animation-delay:1020ms" x="694.2857142857142" y="294" font-size="13" font-weight="600">16</text>
</g>
<g>
  <text x="156" y="324" class="t" font-size="15" font-weight="600" text-anchor="end">Text</text>
  <rect x="170" y="310" width="900" height="18" rx="5" fill="#ece8de"/>
  <rect class="bar" style="animation-delay:490ms" x="170" y="310" width="482.1428571428571" height="18" rx="5" fill="hsl(255 48% 48%)"/>
  <text class="n m" style="animation-delay:1090ms" x="662.1428571428571" y="324" font-size="13" font-weight="600">15</text>
</g>
<g>
  <text x="156" y="354" class="t" font-size="15" font-weight="600" text-anchor="end">Design</text>
  <rect x="170" y="340" width="900" height="18" rx="5" fill="#ece8de"/>
  <rect class="bar" style="animation-delay:560ms" x="170" y="340" width="321.42857142857144" height="18" rx="5" fill="hsl(315 48% 48%)"/>
  <text class="n m" style="animation-delay:1160ms" x="501.42857142857144" y="354" font-size="13" font-weight="600">10</text>
</g>
<g>
  <text x="156" y="384" class="t" font-size="15" font-weight="600" text-anchor="end">Everyday</text>
  <rect x="170" y="370" width="900" height="18" rx="5" fill="#ece8de"/>
  <rect class="bar" style="animation-delay:630ms" x="170" y="370" width="321.42857142857144" height="18" rx="5" fill="hsl(355 48% 48%)"/>
  <text class="n m" style="animation-delay:1230ms" x="501.42857142857144" y="384" font-size="13" font-weight="600">10</text>
</g>
<g>
  <text x="156" y="414" class="t" font-size="15" font-weight="600" text-anchor="end">Health</text>
  <rect x="170" y="400" width="900" height="18" rx="5" fill="#ece8de"/>
  <rect class="bar" style="animation-delay:700ms" x="170" y="400" width="321.42857142857144" height="18" rx="5" fill="hsl(210 48% 48%)"/>
  <text class="n m" style="animation-delay:1300ms" x="501.42857142857144" y="414" font-size="13" font-weight="600">10</text>
</g>
<g>
  <text x="156" y="444" class="t" font-size="15" font-weight="600" text-anchor="end">Home</text>
  <rect x="170" y="430" width="900" height="18" rx="5" fill="#ece8de"/>
  <rect class="bar" style="animation-delay:770ms" x="170" y="430" width="321.42857142857144" height="18" rx="5" fill="hsl(330 48% 48%)"/>
  <text class="n m" style="animation-delay:1370ms" x="501.42857142857144" y="444" font-size="13" font-weight="600">10</text>
</g>
<g>
  <text x="156" y="474" class="t" font-size="15" font-weight="600" text-anchor="end">Learning</text>
  <rect x="170" y="460" width="900" height="18" rx="5" fill="#ece8de"/>
  <rect class="bar" style="animation-delay:840ms" x="170" y="460" width="321.42857142857144" height="18" rx="5" fill="hsl(265 48% 48%)"/>
  <text class="n m" style="animation-delay:1440ms" x="501.42857142857144" y="474" font-size="13" font-weight="600">10</text>
</g>
<g>
  <text x="156" y="504" class="t" font-size="15" font-weight="600" text-anchor="end">Money</text>
  <rect x="170" y="490" width="900" height="18" rx="5" fill="#ece8de"/>
  <rect class="bar" style="animation-delay:910ms" x="170" y="490" width="321.42857142857144" height="18" rx="5" fill="hsl(140 48% 48%)"/>
  <text class="n m" style="animation-delay:1510ms" x="501.42857142857144" y="504" font-size="13" font-weight="600">10</text>
</g>
<g>
  <text x="156" y="534" class="t" font-size="15" font-weight="600" text-anchor="end">Music</text>
  <rect x="170" y="520" width="900" height="18" rx="5" fill="#ece8de"/>
  <rect class="bar" style="animation-delay:980ms" x="170" y="520" width="321.42857142857144" height="18" rx="5" fill="hsl(30 48% 48%)"/>
  <text class="n m" style="animation-delay:1580ms" x="501.42857142857144" y="534" font-size="13" font-weight="600">10</text>
</g>
<g>
  <text x="156" y="564" class="t" font-size="15" font-weight="600" text-anchor="end">Productivity</text>
  <rect x="170" y="550" width="900" height="18" rx="5" fill="#ece8de"/>
  <rect class="bar" style="animation-delay:1050ms" x="170" y="550" width="321.42857142857144" height="18" rx="5" fill="hsl(10 48% 48%)"/>
  <text class="n m" style="animation-delay:1650ms" x="501.42857142857144" y="564" font-size="13" font-weight="600">10</text>
</g>
<g>
  <text x="156" y="594" class="t" font-size="15" font-weight="600" text-anchor="end">Security</text>
  <rect x="170" y="580" width="900" height="18" rx="5" fill="#ece8de"/>
  <rect class="bar" style="animation-delay:1120ms" x="170" y="580" width="321.42857142857144" height="18" rx="5" fill="hsl(0 48% 48%)"/>
  <text class="n m" style="animation-delay:1720ms" x="501.42857142857144" y="594" font-size="13" font-weight="600">10</text>
</g>
<g>
  <text x="156" y="624" class="t" font-size="15" font-weight="600" text-anchor="end">Travel</text>
  <rect x="170" y="610" width="900" height="18" rx="5" fill="#ece8de"/>
  <rect class="bar" style="animation-delay:1190ms" x="170" y="610" width="321.42857142857144" height="18" rx="5" fill="hsl(180 48% 48%)"/>
  <text class="n m" style="animation-delay:1790ms" x="501.42857142857144" y="624" font-size="13" font-weight="600">10</text>
</g>
<g>
  <text x="156" y="654" class="t" font-size="15" font-weight="600" text-anchor="end">Work</text>
  <rect x="170" y="640" width="900" height="18" rx="5" fill="#ece8de"/>
  <rect class="bar" style="animation-delay:1260ms" x="170" y="640" width="321.42857142857144" height="18" rx="5" fill="hsl(240 48% 48%)"/>
  <text class="n m" style="animation-delay:1860ms" x="501.42857142857144" y="654" font-size="13" font-weight="600">10</text>
</g>
<g>
  <text x="156" y="684" class="t" font-size="15" font-weight="600" text-anchor="end">Calculator</text>
  <rect x="170" y="670" width="900" height="18" rx="5" fill="#ece8de"/>
  <rect class="bar" style="animation-delay:1330ms" x="170" y="670" width="257.1428571428571" height="18" rx="5" fill="hsl(85 48% 48%)"/>
  <text class="n m" style="animation-delay:1930ms" x="437.1428571428571" y="684" font-size="13" font-weight="600">8</text>
</g>
<g>
  <text x="156" y="714" class="t" font-size="15" font-weight="600" text-anchor="end">Image</text>
  <rect x="170" y="700" width="900" height="18" rx="5" fill="#ece8de"/>
  <rect class="bar" style="animation-delay:1400ms" x="170" y="700" width="225" height="18" rx="5" fill="hsl(125 48% 48%)"/>
  <text class="n m" style="animation-delay:2000ms" x="405" y="714" font-size="13" font-weight="600">7</text>
</g>
<g>
  <text x="156" y="744" class="t" font-size="15" font-weight="600" text-anchor="end">Network</text>
  <rect x="170" y="730" width="900" height="18" rx="5" fill="#ece8de"/>
  <rect class="bar" style="animation-delay:1470ms" x="170" y="730" width="225" height="18" rx="5" fill="hsl(285 48% 48%)"/>
  <text class="n m" style="animation-delay:2070ms" x="405" y="744" font-size="13" font-weight="600">7</text>
</g>
<g>
  <text x="156" y="774" class="t" font-size="15" font-weight="600" text-anchor="end">Convert</text>
  <rect x="170" y="760" width="900" height="18" rx="5" fill="#ece8de"/>
  <rect class="bar" style="animation-delay:1540ms" x="170" y="760" width="192.85714285714283" height="18" rx="5" fill="hsl(200 48% 48%)"/>
  <text class="n m" style="animation-delay:2140ms" x="372.85714285714283" y="774" font-size="13" font-weight="600">6</text>
</g>
<g>
  <text x="156" y="804" class="t" font-size="15" font-weight="600" text-anchor="end">Scan &amp; Code</text>
  <rect x="170" y="790" width="900" height="18" rx="5" fill="#ece8de"/>
  <rect class="bar" style="animation-delay:1610ms" x="170" y="790" width="96.42857142857142" height="18" rx="5" fill="hsl(35 48% 48%)"/>
  <text class="n m" style="animation-delay:2210ms" x="276.42857142857144" y="804" font-size="13" font-weight="600">3</text>
</g>
<clipPath id="barsclip"><rect x="170" y="96" width="900" height="720"/></clipPath>
<g clip-path="url(#barsclip)"><rect class="shine" x="170" y="96" width="120" height="720" fill="url(#sh)"/></g>
</svg>
